<?xml version="1.0"?><svg version="1.2" baseProfile="tiny-ps" viewBox="0 0 300 300" xmlns="http://www.w3.org/2000/svg" xmlns:xlink="http://www.w3.org/1999/xlink"><title>ALDO</title><g><g fill="#fff" transform="matrix(.1 0 0 -.1 0 300)"><path d="M0 1500V0h3000v3000H0V1500z"/></g><g fill="#f8d7d6" transform="matrix(.1 0 0 -.1 0 300)"><path d="M0 1500V0h3000v3000H0V1500zm560 156c0-1 38-103 85-226s85-227 85-231v-9H621l-19 53-20 52-164 3-165 2-44-55-44-55H49l72 88c40 48 127 153 193 235l121 147h62c35 0 63-2 63-4zm449-178c-21-101-38-186-39-190v-8h391l-4-17c-3-10-8-30-11-45l-6-28H850v8c0 4 21 109 47 235l47 227h104l-39-182zm1036 163 41-18 27-32 26-32 12-41 11-41-7-36c-14-72-68-156-127-197l-38-27-57-13-58-14h-405v14c0 8 20 111 45 230s45 219 45 221c0 3 100 5 223 5h222l40-19zm865-1c11-11 22-31 26-44l6-25-31-151-32-152-15-23-16-24-42-16-42-16-233 3-233 3-19 24-19 23v33c0 47 50 285 67 318l14 28 32 19 32 20h485l20-20zM393 1470c-40-49-73-92-73-95s52-5 115-5 115 2 115 4c0 14-70 181-77 183-4 1-41-38-80-87zm1262 98c-8-26-55-261-55-275v-14l158 3 159 3 41 28 42 27 20 40 20 39v87l-16 23-17 23-33 14-33 14h-282l-4-12zm777 0c-10-12-62-242-62-273v-15l202 2 202 3 28 135c16 74 26 140 24 147l-5 13h-379l-10-12z"/></g><g fill="#f1b1b1" transform="matrix(.1 0 0 -.1 0 300)"><path d="M0 1500V0h3000v3000H0V1500zm557 158c5-7 40-94 77-193 38-99 77-202 87-228l19-48-61 3-61 3-18 45-18 45-168 2-169 2-38-49-38-50H48l9 13c22 27 299 366 340 415l45 52h106l9-12zm493 7c0-7-71-348-76-367l-5-18h392l-7-37c-4-21-9-41-11-45l-4-8H844l47 224c25 124 49 232 52 240l6 16h51c27 0 50-2 50-5zm996-23c22-11 55-37 72-56l31-36 7-35 6-36-6-40c-8-53-38-110-82-158l-34-39-53-23-52-24-238-3-239-4 6 19c6 19 96 451 96 460 0 3 100 4 223 1l222-5 41-21zm819 18 40-9 19-23 18-23-6-57c-3-32-17-108-31-170l-25-112-16-24-16-24-33-14-34-14h-468l-27 21-26 20v46c0 25 12 102 26 172l26 126 15 26c35 59 70 67 308 68l190 1 40-10zM404 1479c-39-46-74-90-78-96l-7-13h231l-24 63c-13 34-30 77-38 96l-14 35-70-85zm1259 89c-5-7-20-65-33-128s-25-125-28-137l-4-23h287l40 19c118 55 155 198 66 258l-26 18-146 3-145 4-11-14zm775 0-15-13-27-130c-14-71-26-133-26-137v-8h400l5 23c3 12 16 76 30 141l25 120-12 8-13 8h-351l-16-12z"/></g><g fill="#e56c6a" transform="matrix(.1 0 0 -.1 0 300)"><path d="M0 1500V0h3000v3000H0V1500zm565 153c4-10 42-110 85-223s82-213 85-222l7-18H615l-18 50-18 50H255l-45-50-45-51-59 3-59 3 194 237 194 237 61 1h62l7-17zm485 5c0-7-18-95-39-195l-38-183h390l-7-31c-3-17-6-38-6-45v-14H839l5 18c5 17 96 451 96 458 0 2 25 4 55 4h55v-12zm963-2c25-7 59-24 77-36l30-22 20-38 20-39v-96l-29-60-28-61-48-42-48-42-50-15-51-15h-448l5 23c3 12 24 112 47 222 22 110 43 208 46 218l5 17h406l46-14zm901-15 26-24v-44c0-49-46-276-63-313-7-13-27-35-46-47l-34-23h-495l-26 31c-14 17-26 38-26 47s13 81 29 158l29 142 17 32 16 32 42 19 42 19 232-2 231-3 26-24zM414 1489c-32-40-67-84-77-96l-18-23h221l-1 13c0 6-15 50-33 96l-32 83-60-73zm1233 14c-9-38-21-95-27-128s-14-68-16-77l-5-18h266l38 11 38 10 34 30 34 30 17 44 16 44-6 35-7 35-30 25-31 26h-306l-15-67zm778 45c-29-127-52-254-49-260l5-8h378l7 11c10 17 62 268 56 274-3 3-92 5-198 5h-194l-5-22z"/></g><g fill="#de413f" transform="matrix(.1 0 0 -.1 0 300)"><path d="M0 1505V10h3000v2990H0V1505zm651-70c49-126 89-236 89-243v-13l-62 3-63 3-19 53-19 52H252l-25-32c-14-18-35-43-46-55l-22-23h-53c-29 0-55 3-59 6-3 3 83 114 191 245l197 240 64-3 63-3 89-230zm368 53c-21-101-39-189-39-195v-13l193-2 194-3-11-45-11-45-252-3-253-2v9c0 11 89 440 96 464l5 17h116l-38-182zm996 171 44-11 40-35 41-34 15-50 14-51-10-49-11-50-41-61-42-61-51-29-51-28-74-10-74-9-177-1h-178v15c0 16 87 442 95 463l4 12h412l44-11zm884-4 29-14 11-32 11-32-30-149c-17-82-37-162-45-177l-14-28-38-19-38-19-225-3-225-3-35 18-35 18-9 28-10 27 31 156 31 157 19 26c11 14 35 34 54 43l34 18h456l28-15zM398 1465c-38-46-68-86-68-89s47-6 105-6 105 3 105 6c0 15-64 174-69 174-3-1-36-39-73-85zm1262 97c0-5-13-71-29-146l-29-138 146 4 147 4 42 22 43 22 26 40 26 39v45l1 45-17 26-17 26-25 9-25 10h-289v-8zm770 4c0-2-11-58-25-126s-25-131-25-141v-19h379l6 9c6 11 55 247 55 267v14h-195c-107 0-195-2-195-4z"/></g><g fill="#d9201e" transform="matrix(.1 0 0 -.1 0 300)"><path d="M0 1505V10h3000v2990H0V1505zm653-68c49-127 89-236 90-242l2-10-65-3-65-3-20 53-21 53-159 2-160 2-44-54-43-55H38l4 10c1 5 90 116 196 245l193 235h134l88-233zm402 211c-3-13-18-88-35-168s-32-155-35-167l-5-23h379l5-8c2-4 0-29-6-55l-10-47H840v15c0 16 87 442 95 463l4 12h121l-5-22zm970 11 40-11 41-42 42-41 12-44 12-44-7-35c-4-20-16-56-28-81l-21-46-46-46-46-46-49-18-50-18-228-5-229-4-7 8-8 9 50 238 51 237h431l40-11zm892-13 28-24-1-54v-53l-29-130-29-130-26-27-27-26-42-12-42-11-225 3-226 3-24 28-24 28v36c0 48 48 280 66 319l15 30 37 22 37 22h484l28-24zM401 1466c-33-41-61-77-61-80s45-6 99-6h99l-30 80c-17 44-34 80-38 80s-35-33-69-74zm1240-13c-13-65-26-128-29-140l-4-23h281l28 11c34 13 80 55 99 91l14 27v86l-18 21c-9 12-27 27-39 33l-22 11h-287l-23-117zm795 109c-5-8-56-246-56-262v-10h386l27 133c15 72 27 135 27 140v7h-379l-5-8z"/></g></g></svg>