<?xml version="1.0" encoding="UTF-8"?>
<!DOCTYPE svg PUBLIC "-//W3C//DTD SVG 1.1//EN" "http://www.w3.org/Graphics/SVG/1.1/DTD/svg11.dtd">
<svg xmlns="http://www.w3.org/2000/svg" version="1.1" width="1207px" height="885px" style="shape-rendering:geometricPrecision; text-rendering:geometricPrecision; image-rendering:optimizeQuality; fill-rule:evenodd; clip-rule:evenodd" xmlns:xlink="http://www.w3.org/1999/xlink">
<g><path style="opacity:1" fill="#d9211e" d="M -0.5,-0.5 C 401.833,-0.5 804.167,-0.5 1206.5,-0.5C 1206.5,294.5 1206.5,589.5 1206.5,884.5C 804.167,884.5 401.833,884.5 -0.5,884.5C -0.5,589.5 -0.5,294.5 -0.5,-0.5 Z"/></g>
<g><path style="opacity:1" fill="#fefdfd" d="M 273.5,392.5 C 285.851,392.168 298.185,392.501 310.5,393.5C 328.304,440.245 346.304,486.912 364.5,533.5C 352.18,534.666 339.847,534.833 327.5,534C 323.229,524.123 319.229,514.123 315.5,504C 283.5,503.333 251.5,503.333 219.5,504C 211.405,514.185 203.072,524.185 194.5,534C 182.153,534.833 169.82,534.666 157.5,533.5C 196.19,486.481 234.857,439.481 273.5,392.5 Z"/></g>
<g><path style="opacity:1" fill="#fefcfc" d="M 542.5,531.5 C 493.05,533.488 443.384,534.155 393.5,533.5C 402.837,487.149 412.337,440.816 422,394.5C 432.912,392.536 444.078,391.869 455.5,392.5C 448.478,430.276 440.811,467.943 432.5,505.5C 470.828,506.5 509.161,506.833 547.5,506.5C 546.216,514.918 544.55,523.251 542.5,531.5 Z"/></g>
<g><path style="opacity:1" fill="#fefdfd" d="M 692.5,533.5 C 653.833,533.5 615.167,533.5 576.5,533.5C 576.5,532.167 576.5,530.833 576.5,529.5C 585.577,483.78 594.911,438.113 604.5,392.5C 645.835,392.333 687.168,392.5 728.5,393C 765.096,399.067 783.263,420.567 783,457.5C 778.437,479.129 768.271,497.629 752.5,513C 734.918,526.695 714.918,533.528 692.5,533.5 Z"/></g>
<g><path style="opacity:1" fill="#fefdfd" d="M 859.5,392.5 C 903.501,392.333 947.501,392.5 991.5,393C 1007.85,397.696 1015.02,408.529 1013,425.5C 1008.45,454.268 1002.61,482.768 995.5,511C 988.272,524.535 976.938,532.202 961.5,534C 917.833,534.667 874.167,534.667 830.5,534C 817.22,530.388 810.22,521.722 809.5,508C 813.716,479.587 819.216,451.42 826,423.5C 831.241,406.759 842.408,396.426 859.5,392.5 Z"/></g>
<g><path style="opacity:1" fill="#d9211e" d="M 634.5,420.5 C 662.169,420.333 689.835,420.5 717.5,421C 735.448,423.614 745.115,433.948 746.5,452C 743.331,484.17 725.664,502.17 693.5,506C 668.169,506.5 642.836,506.667 617.5,506.5C 623.488,477.885 629.154,449.219 634.5,420.5 Z"/></g>
<g><path style="opacity:1" fill="#d9211e" d="M 864.5,420.5 C 902.21,420.173 939.876,420.506 977.5,421.5C 978.641,423.421 978.808,425.421 978,427.5C 972.918,452.913 967.584,478.246 962,503.5C 961.097,504.701 959.931,505.535 958.5,506C 921.167,506.667 883.833,506.667 846.5,506C 845.39,503.263 845.223,500.429 846,497.5C 851.317,473.566 856.317,449.566 861,425.5C 861.997,423.677 863.164,422.01 864.5,420.5 Z"/></g>
<g><path style="opacity:1" fill="#d9231f" d="M 305.5,478.5 C 283.833,479.833 262.167,479.833 240.5,478.5C 255.086,460.347 269.92,442.347 285,424.5C 292.131,442.421 298.964,460.421 305.5,478.5 Z"/></g>
<g><path style="opacity:1" fill="#ecaeae" d="M 240.5,478.5 C 262.167,479.833 283.833,479.833 305.5,478.5C 306.043,478.56 306.376,478.893 306.5,479.5C 284.167,480.833 261.833,480.833 239.5,479.5C 239.624,478.893 239.957,478.56 240.5,478.5 Z"/></g>
<g><path style="opacity:1" fill="#f5d9d9" d="M 542.5,531.5 C 542.5,532.5 542.5,533.5 542.5,534.5C 492.664,534.832 442.997,534.499 393.5,533.5C 443.384,534.155 493.05,533.488 542.5,531.5 Z"/></g>
<g><path style="opacity:1" fill="#f5d7d7" d="M 576.5,529.5 C 576.5,530.833 576.5,532.167 576.5,533.5C 615.167,533.5 653.833,533.5 692.5,533.5C 653.67,534.499 614.67,534.832 575.5,534.5C 575.216,532.585 575.549,530.919 576.5,529.5 Z"/></g>
</svg>
