<?xml version="1.0" encoding="UTF-8"?>
<!DOCTYPE svg PUBLIC "-//W3C//DTD SVG 1.1//EN" "http://www.w3.org/Graphics/SVG/1.1/DTD/svg11.dtd">
<svg xmlns="http://www.w3.org/2000/svg" version="1.1" width="885px" height="885px" style="shape-rendering:geometricPrecision; text-rendering:geometricPrecision; image-rendering:optimizeQuality; fill-rule:evenodd; clip-rule:evenodd" xmlns:xlink="http://www.w3.org/1999/xlink">
<g><path style="opacity:1" fill="#d9211e" d="M -0.5,-0.5 C 294.5,-0.5 589.5,-0.5 884.5,-0.5C 884.5,294.5 884.5,589.5 884.5,884.5C 589.5,884.5 294.5,884.5 -0.5,884.5C -0.5,589.5 -0.5,294.5 -0.5,-0.5 Z"/></g>
<g><path style="opacity:1" fill="#fefcfc" d="M 127.5,392.5 C 139.851,392.168 152.185,392.501 164.5,393.5C 182.5,440.167 200.5,486.833 218.5,533.5C 206.18,534.666 193.847,534.833 181.5,534C 176.838,524.179 173.171,514.012 170.5,503.5C 138.165,503.333 105.832,503.5 73.5,504C 65.4049,514.185 57.0716,524.185 48.5,534C 36.4861,534.833 24.4861,534.666 12.5,533.5C 50.6022,486.286 88.9356,439.286 127.5,392.5 Z"/></g>
<g><path style="opacity:1" fill="#fefdfd" d="M 396.5,531.5 C 371.882,532.824 347.048,533.491 322,533.5C 297.5,533.333 273,533.167 248.5,533C 250.022,528.661 250.689,524.161 250.5,519.5C 251.117,519.389 251.617,519.056 252,518.5C 252.994,513.882 253.494,509.215 253.5,504.5C 253.676,501.273 254.343,498.273 255.5,495.5C 256.117,495.389 256.617,495.056 257,494.5C 257.994,489.882 258.494,485.215 258.5,480.5C 258.676,477.273 259.343,474.273 260.5,471.5C 261.117,471.389 261.617,471.056 262,470.5C 262.994,465.882 263.494,461.215 263.5,456.5C 263.676,453.273 264.343,450.273 265.5,447.5C 266.117,447.389 266.617,447.056 267,446.5C 267.994,441.882 268.494,437.215 268.5,432.5C 268.676,429.273 269.343,426.273 270.5,423.5C 271.117,423.389 271.617,423.056 272,422.5C 273.481,416.581 274.314,410.581 274.5,404.5C 274.652,400.738 275.319,397.072 276.5,393.5C 287.48,392.501 298.48,392.168 309.5,392.5C 302.63,430.316 294.963,467.983 286.5,505.5C 324.828,506.5 363.161,506.833 401.5,506.5C 400.217,514.914 398.551,523.247 396.5,531.5 Z"/></g>
<g><path style="opacity:1" fill="#fefdfc" d="M 459.5,392.5 C 502.534,392.033 545.534,392.533 588.5,394C 621.938,402.066 638.105,423.232 637,457.5C 631.187,485.615 616.354,507.449 592.5,523C 579.295,529.635 565.295,533.135 550.5,533.5C 510.833,533.5 471.167,533.5 431.5,533.5C 432.08,529.19 432.414,524.857 432.5,520.5C 438.991,486.377 445.991,452.377 453.5,418.5C 454.117,418.389 454.617,418.056 455,417.5C 455.497,414.854 455.664,412.187 455.5,409.5C 455.676,406.273 456.343,403.273 457.5,400.5C 458.768,398.095 459.435,395.428 459.5,392.5 Z"/></g>
<g><path style="opacity:1" fill="#fefcfc" d="M 665.5,495.5 C 668.225,488.902 669.559,481.902 669.5,474.5C 672.446,453.383 677.279,432.717 684,412.5C 691.483,401.839 701.65,395.339 714.5,393C 759.546,392.021 804.546,392.354 849.5,394C 863.389,399.984 869.222,410.484 867,425.5C 862.454,455.564 856.121,485.231 848,514.5C 841.548,524.492 832.381,530.658 820.5,533C 775.204,534.641 729.871,534.974 684.5,534C 666.08,527.326 659.747,514.493 665.5,495.5 Z"/></g>
<g><path style="opacity:1" fill="#ed9f9d" d="M 459.5,392.5 C 459.435,395.428 458.768,398.095 457.5,400.5C 457.294,397.505 457.96,394.838 459.5,392.5 Z"/></g>
<g><path style="opacity:1" fill="#f4bdbb" d="M 274.5,404.5 C 274.314,410.581 273.481,416.581 272,422.5C 271.617,423.056 271.117,423.389 270.5,423.5C 271.311,416.938 272.644,410.605 274.5,404.5 Z"/></g>
<g><path style="opacity:1" fill="#f2afac" d="M 455.5,409.5 C 455.664,412.187 455.497,414.854 455,417.5C 454.617,418.056 454.117,418.389 453.5,418.5C 453.676,415.273 454.343,412.273 455.5,409.5 Z"/></g>
<g><path style="opacity:1" fill="#d9221e" d="M 600.5,457.5 C 599.419,460.627 598.753,463.96 598.5,467.5C 589.692,490.93 572.692,503.764 547.5,506C 522.169,506.5 496.836,506.667 471.5,506.5C 477.244,478.113 483.244,449.78 489.5,421.5C 503.167,421.167 516.833,420.833 530.5,420.5C 546.204,420.382 561.871,420.882 577.5,422C 594.325,427.8 601.991,439.633 600.5,457.5 Z"/></g>
<g><path style="opacity:1" fill="#d9211e" d="M 719.5,420.5 C 756.835,420.333 794.168,420.5 831.5,421C 832.591,423.064 832.758,425.231 832,427.5C 826.918,452.913 821.584,478.246 816,503.5C 815.167,504.333 814.333,505.167 813.5,506C 775.792,506.827 738.125,506.66 700.5,505.5C 699.353,503.235 699.186,500.902 700,498.5C 705.158,474.201 710.158,449.867 715,425.5C 716.025,423.313 717.525,421.646 719.5,420.5 Z"/></g>
<g><path style="opacity:1" fill="#d92420" d="M 160.5,479.5 C 138.327,479.831 116.327,479.497 94.5,478.5C 109.086,460.347 123.92,442.347 139,424.5C 146.189,442.869 153.355,461.202 160.5,479.5 Z"/></g>
<g><path style="opacity:1" fill="#f5c2c0" d="M 268.5,432.5 C 268.494,437.215 267.994,441.882 267,446.5C 266.617,447.056 266.117,447.389 265.5,447.5C 266.058,442.291 267.058,437.291 268.5,432.5 Z"/></g>
<g><path style="opacity:1" fill="#f0a9a6" d="M 600.5,457.5 C 600.664,460.187 600.497,462.854 600,465.5C 599.722,466.416 599.222,467.082 598.5,467.5C 598.753,463.96 599.419,460.627 600.5,457.5 Z"/></g>
<g><path style="opacity:1" fill="#f5c2c0" d="M 263.5,456.5 C 263.494,461.215 262.994,465.882 262,470.5C 261.617,471.056 261.117,471.389 260.5,471.5C 261.058,466.291 262.058,461.291 263.5,456.5 Z"/></g>
<g><path style="opacity:1" fill="#edb0b0" d="M 94.5,478.5 C 116.327,479.497 138.327,479.831 160.5,479.5C 138.33,480.828 115.996,480.828 93.5,479.5C 93.6236,478.893 93.9569,478.56 94.5,478.5 Z"/></g>
<g><path style="opacity:1" fill="#f3b4b1" d="M 669.5,474.5 C 669.559,481.902 668.225,488.902 665.5,495.5C 666.097,488.237 667.43,481.237 669.5,474.5 Z"/></g>
<g><path style="opacity:1" fill="#f5c2c0" d="M 258.5,480.5 C 258.494,485.215 257.994,489.882 257,494.5C 256.617,495.056 256.117,495.389 255.5,495.5C 256.058,490.291 257.058,485.291 258.5,480.5 Z"/></g>
<g><path style="opacity:1" fill="#f5c2c0" d="M 253.5,504.5 C 253.494,509.215 252.994,513.882 252,518.5C 251.617,519.056 251.117,519.389 250.5,519.5C 251.058,514.291 252.058,509.291 253.5,504.5 Z"/></g>
<g><path style="opacity:1" fill="#f5d5d5" d="M 250.5,519.5 C 250.689,524.161 250.022,528.661 248.5,533C 273,533.167 297.5,533.333 322,533.5C 347.048,533.491 371.882,532.824 396.5,531.5C 396.5,532.5 396.5,533.5 396.5,534.5C 346.833,534.5 297.167,534.5 247.5,534.5C 247.739,529.231 248.739,524.231 250.5,519.5 Z"/></g>
<g><path style="opacity:1" fill="#f5d1d0" d="M 432.5,520.5 C 432.414,524.857 432.08,529.19 431.5,533.5C 471.167,533.5 510.833,533.5 550.5,533.5C 510.337,534.499 470.003,534.832 429.5,534.5C 429.898,529.588 430.898,524.921 432.5,520.5 Z"/></g>
</svg>
