<svg xmlns="http://www.w3.org/2000/svg" viewBox="0 0 24 24"><g><path d="M21.72 7.68a5.11 5.11 0 0 0-1.23-.52 7.41 7.41 0 0 0 1.33-2.67A5.36 5.36 0 0 0 21.3.66a1.17 1.17 0 0 0-1-.62 1.15 1.15 0 0 0-1 .68c-.75 1.64-2.61 2.55-2.75 2.4a2 2 0 0 0-1.85-.62 3 3 0 0 0-5.22 0 2 2 0 0 0-1.85.62A4.44 4.44 0 0 1 4.78.72a1.13 1.13 0 0 0-1-.68A1.1 1.1 0 0 0 2.7.66a5.35 5.35 0 0 0-.52 3.83 7.41 7.41 0 0 0 1.33 2.67 5.11 5.11 0 0 0-1.23.52C-.5 9.36 0 11.64.06 11.73a.5.5 0 0 0 .36.37 9.54 9.54 0 0 0 4.35 0 30.92 30.92 0 0 0 .76 3.71A1 1 0 0 0 5 17a40 40 0 0 0 1.76 4.3 4.7 4.7 0 0 0 4.16 2.7h2.18a4.69 4.69 0 0 0 4.19-2.62A36.59 36.59 0 0 0 19 17a1 1 0 0 0-.57-1.26 30.92 30.92 0 0 0 .76-3.71 9.46 9.46 0 0 0 4.35 0 .5.5 0 0 0 .36-.37c.1-.02.6-2.3-2.18-3.98ZM7.15 17.23a14.33 14.33 0 0 1 9.71 0c-.4 1.09-.86 2.18-1.37 3.24A2.66 2.66 0 0 1 13.1 22h-2.18a2.67 2.67 0 0 1-2.4-1.49c-.52-1.1-.97-2.19-1.37-3.28Zm2.1-6.89A1.25 1.25 0 1 1 8 11.59a1.25 1.25 0 0 1 1.25-1.25ZM16 11.59a1.25 1.25 0 1 1-1.25-1.25A1.25 1.25 0 0 1 16 11.59Z" fill="#000000"></path><path d="M10.5 17.84a.76.76 0 0 0-.75.75v1a.75.75 0 0 0 1.5 0v-1a.76.76 0 0 0-.75-.75Z" fill="#000000"></path><path d="M13.5 17.84a.76.76 0 0 0-.75.75v1a.75.75 0 1 0 1.5 0v-1a.76.76 0 0 0-.75-.75Z" fill="#000000"></path></g></svg>